<svg xmlns="http://www.w3.org/2000/svg" width="512" height="512" fill="none" viewBox="0 0 512 512" id="recipe">
  <path fill="#fff" d="M320.473 375.385C340.703 368.625 357.513 352.275 364.663 332.185 365.823 328.935 366.753 325.525 366.533 322.075 366.313 318.635 364.803 315.125 361.933 313.205 359.113 311.315 355.373 311.225 352.123 312.205 348.873 313.175 345.993 315.095 343.213 317.045 332.173 324.785 321.773 333.445 312.153 342.895L297.443 359.395C297.443 359.405 296.293 383.455 320.473 375.385zM119.162 345.864C116.182 340.314 113.552 334.504 109.522 329.654 105.492 324.804 100.082 320.834 93.8623 319.774 87.6423 318.714 80.6523 321.034 77.2923 326.364 72.7623 333.544 75.9423 343.064 80.4523 350.254 88.2023 362.614 99.7223 372.474 112.962 378.594 133.382 388.034 140.592 375.384 140.592 375.384 140.592 375.384 125.002 356.764 119.162 345.864zM354.033 152.685C364.883 147.625 374.323 139.595 381.053 129.705 385.803 122.725 389.273 113.895 386.513 105.915 384.143 99.0646 377.323 94.2546 370.123 93.3746 362.923 92.4946 355.573 95.2146 349.973 99.8146 336.893 110.545 333.913 129.105 325.183 143.595L315.223 158.055 340.383 170.235 354.033 152.685z"></path>
  <path fill="#fff" d="M306.702 328.685C307.802 350.045 308.912 371.405 310.012 392.765 310.542 402.965 310.952 413.715 306.302 422.805 302.222 430.775 294.612 436.505 286.332 439.905 278.052 443.305 269.072 444.575 260.162 445.485 225.462 449.005 190.242 447.255 156.062 440.305 144.492 437.955 131.742 434.045 126.142 423.645 122.312 416.535 122.782 407.975 123.352 399.915 124.962 377.065 126.582 354.215 128.192 331.365L129.352 308.755 306.652 305.765 306.702 328.685zM486.763 161.195C471.333 180.765 445.533 188.505 421.153 193.695 396.773 198.885 370.983 203.095 351.343 218.445 344.023 224.175 337.853 231.265 330.453 236.885 323.053 242.505 313.773 246.955 304.653 245.215 294.973 243.365 283.653 232.905 279.733 229.035 278.813 228.125 278.043 227.055 277.523 225.865 268.393 205.075 270.853 179.555 283.923 160.965 288.723 154.135 294.993 148.115 302.713 144.905 310.663 141.605 319.723 142.185 327.343 146.195 349.683 157.945 376.333 159.245 400.383 151.445 424.903 143.495 446.203 128.075 467.033 112.895 469.443 114.095 482.763 121.045 487.493 136.875 490.863 148.165 487.993 157.735 486.763 161.195z"></path>
  <path fill="#fff" d="M278.002 278.484C287.822 263.834 297.642 249.194 307.452 234.544C310.512 229.974 313.642 225.264 314.812 219.884C315.982 214.504 314.752 208.234 310.392 204.884C305.592 201.194 298.432 202.164 293.392 205.524C288.352 208.884 284.952 214.144 281.692 219.244C268.132 240.474 254.222 261.494 241.022 282.944C230.382 300.244 251.792 315.364 251.792 315.364L278.002 278.484Z"></path>
  <path fill="#fff" d="M145.933 285.774C138.073 285.744 129.953 285.764 122.713 288.844 115.473 291.914 109.283 298.884 109.643 306.734 109.983 314.144 116.053 320.304 122.943 323.044 129.833 325.784 137.463 325.794 144.883 325.774 170.653 325.684 196.423 325.594 222.193 325.504 249.493 325.404 277.373 325.214 303.163 316.254 308.103 314.534 313.103 312.384 316.613 308.514 320.123 304.634 321.753 298.614 319.193 294.054 315.933 288.224 308.043 287.364 301.373 287.194 249.543 285.844 197.793 285.774 145.933 285.774zM32.3027 157.835C60.5527 177.075 95.1727 186.795 129.313 185.055 139.743 184.525 151.213 183.225 159.703 189.315 165.623 193.565 168.833 200.685 170.433 207.785 172.043 214.885 172.313 222.235 173.763 229.365 174.713 234.035 176.973 239.365 181.663 240.235 185.833 241.015 189.843 237.505 191.153 233.475 192.463 229.445 191.793 225.055 191.123 220.865 190.233 215.335 189.373 209.675 190.413 204.175 191.453 198.675 194.763 193.275 199.983 191.265 205.973 188.955 213.123 191.825 217.013 196.935 220.903 202.035 221.943 208.855 221.263 215.235 220.583 221.615 218.343 227.715 216.233 233.775 215.143 236.895 214.163 240.615 216.103 243.295 217.793 245.615 221.193 246.135 223.903 245.205 226.613 244.275 228.773 242.205 230.703 240.085 244.003 225.485 251.023 205.045 248.253 185.495 245.483 165.945 232.523 147.845 214.393 140.025 194.763 131.555 172.363 135.335 150.983 135.705 113.883 136.345 76.6627 125.895 45.3127 106.055L32.3027 157.835z"></path>
  <path fill="#fff" d="M192.323 242.024C194.083 249.914 195.843 257.804 197.603 265.684C203.403 264.084 209.193 262.474 214.993 260.874C212.453 253.424 209.923 245.974 207.383 238.524C202.923 239.664 192.323 242.024 192.323 242.024Z"></path>
  <path fill="#000" d="M31.1728 159.775C49.0328 171.905 69.4028 180.325 90.5828 184.465 101.203 186.545 112.043 187.585 122.863 187.495 128.083 187.445 133.293 186.995 138.513 186.845 143.443 186.705 148.463 186.865 153.183 188.465 163.003 191.805 167.123 201.715 168.843 211.175 169.903 217.015 170.293 222.965 171.383 228.805 172.203 233.185 173.703 237.925 177.403 240.725 181.433 243.775 186.763 242.755 190.183 239.285 194.183 235.215 194.543 229.415 193.863 224.035 193.113 218.145 191.733 212.285 192.363 206.305 192.823 201.995 194.703 197.395 198.283 194.745 201.783 192.155 206.363 192.175 210.163 194.115 214.373 196.265 217.063 200.145 218.313 204.635 219.703 209.645 219.343 214.915 218.203 219.935 217.563 222.765 216.693 225.535 215.773 228.275 214.893 230.885 213.793 233.475 213.183 236.165 212.623 238.655 212.523 241.275 213.693 243.615 214.763 245.735 216.893 247.195 219.203 247.655 224.693 248.765 229.143 245.185 232.583 241.365 239.413 233.775 244.603 224.755 247.753 215.035 253.843 196.255 251.513 175.435 240.323 159.015 235.053 151.285 228.083 144.665 219.853 140.165 210.303 134.945 199.473 132.905 188.693 132.415 177.463 131.895 166.233 132.945 155.013 133.325 144.163 133.695 133.293 133.235 122.533 131.765 100.883 128.815 79.7028 122.135 60.3128 112.055 55.5828 109.595 50.9628 106.935 46.4528 104.085 43.9928 102.535 41.7328 106.425 44.1828 107.975 62.4928 119.545 82.7928 127.985 103.893 132.885 114.403 135.325 125.123 136.905 135.883 137.585 146.853 138.275 157.773 137.725 168.733 137.185 179.533 136.655 190.533 136.245 201.203 138.335 210.773 140.215 219.703 144.205 227.043 150.685 241.043 163.035 248.093 181.585 246.313 200.105 245.383 209.795 242.113 219.255 237.143 227.605 234.633 231.835 231.683 235.835 228.263 239.385 226.633 241.075 224.693 242.865 222.293 243.295 220.713 243.575 218.773 243.245 217.823 241.835 216.633 240.065 217.393 237.505 217.963 235.655 218.793 232.975 219.813 230.355 220.673 227.685 222.393 222.375 223.763 216.825 223.683 211.205 223.553 201.385 218.533 191.135 208.303 188.685 203.563 187.555 198.743 188.565 194.953 191.655 191.413 194.545 189.133 198.965 188.253 203.405 187.083 209.335 187.953 215.335 188.893 221.235 189.633 225.865 190.753 231.815 187.343 235.705 186.083 237.145 184.243 238.345 182.243 238.075 180.553 237.845 179.223 236.625 178.333 235.235 175.753 231.235 175.333 225.995 174.753 221.395 173.413 210.905 172.313 199.825 165.223 191.405 158.423 183.325 147.803 182.045 137.873 182.365 132.783 182.535 127.713 182.955 122.623 182.995 117.313 183.035 111.993 182.805 106.713 182.295 85.7528 180.315 65.1528 174.005 46.6628 163.955 42.1228 161.485 37.7028 158.785 33.4328 155.885 31.0428 154.265 28.7828 158.155 31.1728 159.775zM278.223 221.665C274.533 213.865 272.683 205.315 273.033 196.685 273.373 188.315 275.793 180.095 279.533 172.625 286.643 158.415 299.473 143.015 317.133 144.995 319.073 145.215 321.023 145.715 322.833 146.445 324.723 147.205 326.473 148.305 328.303 149.205 332.233 151.135 336.313 152.785 340.483 154.135 348.673 156.775 357.263 158.215 365.863 158.535 383.663 159.205 400.883 154.745 416.943 147.285 433.313 139.675 448.193 129.315 462.763 118.765 464.563 117.455 466.363 116.145 468.163 114.835 469.143 114.125 469.623 112.885 468.973 111.755 468.403 110.785 466.883 110.225 465.893 110.945 451.043 121.765 436.083 132.645 419.653 140.975 403.753 149.035 386.583 154.265 368.633 154.095 359.913 154.015 351.243 152.725 342.903 150.165 338.743 148.895 334.683 147.315 330.773 145.405 326.883 143.505 323.293 141.415 318.943 140.725 310.313 139.365 301.583 141.855 294.523 146.885 287.363 151.985 281.943 159.075 277.623 166.655 268.823 182.095 265.693 200.345 271.633 217.375 272.413 219.605 273.333 221.785 274.333 223.925 274.853 225.025 276.433 225.305 277.413 224.735 278.543 224.085 278.743 222.765 278.223 221.665z"></path>
  <path fill="#000" d="M242.963 284.085C250.363 272.485 257.773 260.895 265.173 249.295C268.833 243.565 272.483 237.835 276.143 232.115C279.603 226.695 282.933 221.155 286.603 215.865C289.603 211.535 293.363 207.155 298.553 205.505C303.003 204.085 308.343 204.645 311.063 208.875C313.803 213.135 313.293 218.485 311.523 223.005C309.293 228.705 305.293 233.755 301.913 238.805C293.303 251.655 284.683 264.505 276.073 277.355C274.453 279.765 278.353 282.025 279.963 279.625C288.063 267.535 296.173 255.445 304.273 243.355C307.963 237.845 312.203 232.395 314.963 226.335C317.383 221.025 318.493 214.935 316.303 209.345C314.183 203.955 309.443 200.565 303.653 200.295C297.693 200.025 292.153 202.955 288.023 207.065C283.593 211.485 280.423 217.065 277.083 222.305C273.163 228.455 269.233 234.595 265.313 240.745C256.573 254.435 247.833 268.125 239.093 281.815C237.513 284.255 241.403 286.515 242.963 284.085Z"></path>
  <path fill="#000" d="M304.053 247.375C319.353 249.695 331.793 239.395 342.193 229.605 347.453 224.645 352.723 219.785 358.863 215.905 364.463 212.375 370.473 209.535 376.663 207.235 401.713 197.935 428.933 196.565 453.823 186.705 466.993 181.485 479.453 173.995 488.353 162.775 489.103 161.825 489.283 160.525 488.353 159.595 487.573 158.815 485.933 158.635 485.173 159.595 469.393 179.485 443.533 186.655 419.743 191.685 406.593 194.465 393.323 196.945 380.513 201.135 374.113 203.235 367.813 205.765 361.873 208.945 355.743 212.225 350.123 216.275 344.943 220.905 338.993 226.235 333.503 232.195 326.863 236.695 320.603 240.935 312.953 244.195 305.243 243.035 304.043 242.855 302.823 243.335 302.473 244.605 302.193 245.675 302.853 247.195 304.053 247.375zM327.133 144.734C331.993 136.614 334.973 127.594 338.983 119.064 342.923 110.674 348.113 102.494 356.623 98.1645 364.983 93.9045 375.743 94.5945 381.943 102.224 388.633 110.464 383.963 121.654 378.663 129.234 372.163 138.534 363.153 145.924 352.913 150.744 351.813 151.264 351.533 152.844 352.103 153.824 352.763 154.954 354.073 155.154 355.183 154.634 365.163 149.944 373.923 142.844 380.643 134.104 387.293 125.464 392.983 113.484 387.633 102.794 382.763 93.0645 370.943 89.2745 360.843 91.8145 350.383 94.4345 342.753 102.544 337.693 111.704 332.203 121.644 329.103 132.714 323.263 142.474 321.763 144.954 325.653 147.224 327.133 144.734zM190.153 242.615C191.913 250.505 193.673 258.395 195.433 266.275 195.693 267.465 197.073 268.155 198.203 267.845 204.003 266.245 209.793 264.635 215.593 263.035 216.713 262.725 217.553 261.425 217.163 260.265 214.623 252.815 212.093 245.365 209.553 237.915 209.153 236.745 208.023 236.025 206.783 236.345 202.313 237.485 197.833 238.615 193.363 239.755 190.563 240.465 191.743 244.805 194.563 244.095 199.033 242.955 203.513 241.825 207.983 240.685 207.063 240.165 206.133 239.635 205.213 239.115 207.753 246.565 210.283 254.015 212.823 261.465 213.343 260.545 213.873 259.615 214.393 258.695 208.593 260.295 202.803 261.905 197.003 263.505 197.923 264.025 198.853 264.555 199.773 265.075 198.013 257.185 196.253 249.295 194.493 241.415 193.863 238.595 189.523 239.795 190.153 242.615zM125.943 331.374C124.973 345.114 124.003 358.854 123.033 372.604 122.543 379.474 122.063 386.344 121.573 393.214 121.133 399.414 120.413 405.704 120.833 411.924 121.213 417.564 122.653 423.174 126.103 427.734 129.173 431.794 133.313 434.824 137.883 437.004 142.463 439.184 147.343 440.654 152.283 441.784 158.533 443.214 164.863 444.304 171.193 445.284 197.563 449.384 224.373 450.514 250.993 448.524 263.773 447.574 277.063 446.504 288.893 441.214 299.163 436.624 307.673 428.424 310.783 417.424 312.403 411.684 312.663 405.634 312.533 399.704 312.393 393.074 311.923 386.454 311.583 379.834 310.873 366.094 310.163 352.344 309.453 338.604 309.283 335.294 309.113 331.984 308.943 328.674 308.793 325.794 304.293 325.774 304.443 328.674 305.133 342.084 305.833 355.494 306.523 368.914 306.863 375.534 307.203 382.164 307.553 388.784 307.863 394.734 308.293 400.714 307.953 406.684 307.633 412.284 306.523 417.944 303.713 422.854 301.163 427.304 297.413 430.974 293.153 433.784 283.253 440.294 271.253 442.114 259.683 443.274 233.813 445.864 207.663 445.524 181.873 442.284 175.423 441.474 169.003 440.464 162.613 439.284 157.283 438.294 151.933 437.274 146.753 435.654 137.703 432.814 128.963 427.694 126.313 417.984 124.813 412.464 125.143 406.634 125.523 400.984 125.973 394.334 126.463 387.694 126.933 381.044 127.873 367.794 128.803 354.554 129.743 341.304 129.973 337.994 130.213 334.684 130.443 331.374 130.653 328.484 126.153 328.504 125.943 331.374z"></path>
  <path fill="#000" d="M145.932 283.524C138.452 283.504 130.682 283.504 123.562 286.104 117.572 288.294 112.002 292.494 109.222 298.364 106.432 304.264 106.972 311.004 110.782 316.344 114.772 321.934 120.902 325.324 127.542 326.774 135.252 328.454 143.292 328.024 151.132 327.994 159.532 327.964 167.922 327.934 176.322 327.904 192.932 327.844 209.552 327.804 226.162 327.724 241.852 327.654 257.602 327.424 273.192 325.364 280.972 324.334 288.692 322.894 296.242 320.774 303.182 318.824 310.662 316.644 316.292 311.934 321.382 307.684 324.432 300.284 321.632 293.904 319.062 288.044 312.652 285.994 306.792 285.284 303.432 284.884 300.032 284.894 296.652 284.804 292.412 284.704 288.182 284.604 283.942 284.514 275.552 284.344 267.172 284.194 258.782 284.074 242.012 283.834 225.242 283.694 208.472 283.614 191.702 283.534 174.922 283.514 158.152 283.504 154.082 283.524 150.012 283.524 145.932 283.524 143.032 283.524 143.032 288.024 145.932 288.024 177.982 288.024 210.042 288.054 242.092 288.384 258.032 288.554 273.972 288.794 289.912 289.154 293.842 289.244 297.782 289.324 301.712 289.444 304.432 289.524 307.152 289.704 309.802 290.354 312.192 290.934 314.572 291.894 316.252 293.764 317.982 295.704 318.532 298.424 318.002 300.934 316.662 307.294 310.942 310.864 305.282 313.074 298.502 315.734 291.362 317.584 284.232 319.024 269.502 321.984 254.452 322.814 239.462 323.094 223.902 323.384 208.332 323.294 192.762 323.354 176.802 323.414 160.842 323.474 144.882 323.524 137.742 323.544 130.262 323.634 123.542 320.874 118.522 318.814 113.802 314.694 112.322 309.324 110.802 303.814 113.482 298.454 117.522 294.774 122.332 290.404 128.862 288.804 135.192 288.294 138.762 288.004 142.342 288.014 145.922 288.024 148.832 288.034 148.832 283.534 145.932 283.524zM313.742 344.485C321.092 337.265 328.882 330.485 337.102 324.265 341.092 321.245 345.152 317.985 349.592 315.665 353.112 313.825 358.242 312.635 361.482 315.705 364.682 318.735 364.702 323.525 363.732 327.515 362.692 331.815 360.892 335.975 358.832 339.875 354.982 347.175 349.842 353.725 343.712 359.245 336.822 365.455 328.672 370.275 319.872 373.215 317.142 374.125 318.312 378.475 321.072 377.555 338.462 371.745 353.392 359.215 362.202 343.135 364.462 339.015 366.412 334.605 367.722 330.085 369.152 325.135 369.482 319.505 366.642 314.965 363.792 310.395 358.612 308.745 353.452 309.595 348.172 310.465 343.692 313.915 339.462 316.965 329.232 324.335 319.572 332.475 310.572 341.305 308.492 343.335 311.672 346.515 313.742 344.485zM121.103 344.724C116.953 336.314 112.523 327.794 104.773 322.134 97.9826 317.174 88.8726 315.514 81.2726 319.684 77.6426 321.674 74.9226 324.974 73.6426 328.914 72.3226 333.014 72.7526 337.564 73.9826 341.634 76.4926 349.984 82.1326 357.464 88.0926 363.694 94.8326 370.744 102.933 376.504 111.823 380.534 112.933 381.034 114.243 380.854 114.903 379.724 115.463 378.754 115.203 377.154 114.093 376.644 106.943 373.404 100.333 369.074 94.5726 363.744 88.8726 358.474 83.6626 352.224 80.2226 345.224 77.1426 338.954 75.4026 330.384 81.2826 325.134 86.6926 320.314 94.7526 321.194 100.543 324.704 108.753 329.674 113.123 338.694 117.223 346.994 118.503 349.594 122.383 347.314 121.103 344.724z"></path>
  <path fill="#fff" d="M27.4228 169.095C53.5328 187.515 85.5728 197.405 117.523 196.905C122.743 196.825 128.713 196.065 131.633 191.735C133.493 188.975 133.593 185.445 133.643 182.115C133.793 170.475 133.943 158.835 134.093 147.205C134.153 142.385 134.123 137.215 131.393 133.245C128.943 129.675 124.773 127.755 120.813 126.005C96.1328 115.065 71.4628 104.145 46.7928 93.2246C42.2428 97.1646 28.7628 109.855 24.3628 131.325C20.7628 148.935 25.1828 163.155 27.4228 169.095Z"></path>
  <path fill="#000" d="M26.2831 171.035C40.2131 180.835 55.8031 188.255 72.1631 193.005 80.3731 195.395 88.7831 197.065 97.2731 198.085 101.483 198.595 105.723 198.925 109.963 199.075 113.883 199.215 117.883 199.355 121.783 198.885 125.353 198.455 128.883 197.505 131.653 195.095 134.913 192.255 135.713 187.915 135.853 183.795 136.183 174.185 136.113 164.555 136.243 154.935 136.303 150.485 136.593 145.955 136.223 141.515 135.873 137.385 134.743 133.395 131.893 130.285 129.213 127.355 125.523 125.645 121.953 124.065 117.463 122.075 112.973 120.085 108.473 118.095 90.4931 110.125 72.5231 102.165 54.5531 94.2146 52.3431 93.2346 50.1331 92.2546 47.9331 91.2846 46.8231 90.7946 45.5131 90.9646 44.8531 92.0946 44.2931 93.0546 44.5431 94.6746 45.6631 95.1746 62.8731 102.795 80.0831 110.415 97.2831 118.035 101.623 119.955 105.963 121.875 110.303 123.805 114.393 125.615 118.543 127.325 122.553 129.275 125.753 130.835 128.873 132.765 130.423 136.105 131.983 139.455 131.873 143.405 131.833 147.015 131.723 156.395 131.593 165.765 131.473 175.145 131.443 177.475 131.413 179.805 131.383 182.125 131.353 184.085 131.343 186.065 130.843 187.965 130.003 191.185 127.603 192.995 124.503 193.845 121.123 194.775 117.543 194.705 114.063 194.675 110.033 194.645 106.003 194.445 101.993 194.095 93.8731 193.375 85.8331 191.965 77.9431 189.935 62.2331 185.895 47.1931 179.355 33.5631 170.545 31.8731 169.455 30.2031 168.325 28.5531 167.165 27.5631 166.465 26.0531 166.985 25.4731 167.975 24.8131 169.075 25.2831 170.335 26.2831 171.035zM136.873 233.725C145.393 237.215 153.923 240.705 162.443 244.185 163.573 244.645 164.913 243.685 165.213 242.615 165.563 241.325 164.773 240.305 163.643 239.845 155.123 236.355 146.593 232.865 138.073 229.385 136.943 228.925 135.603 229.885 135.303 230.955 134.953 232.245 135.753 233.255 136.873 233.725zM125.433 268.215C134.193 266.685 142.953 265.165 151.713 263.635 152.913 263.425 153.583 261.955 153.283 260.865 152.933 259.595 151.713 259.085 150.513 259.295 141.753 260.825 132.993 262.345 124.233 263.875 123.033 264.085 122.363 265.555 122.663 266.645 123.013 267.915 124.223 268.425 125.433 268.215zM310.333 270.184C315.003 263.954 323.013 260.664 330.683 260.894 334.613 261.014 338.403 262.104 341.783 264.124 345.503 266.344 348.633 269.344 351.863 272.204 355.133 275.094 358.553 277.994 362.563 279.804 367.233 281.914 372.223 282.444 377.283 281.674 387.653 280.104 396.283 273.764 405.363 269.014 414.043 264.474 425.543 260.334 434.523 266.354 436.933 267.974 439.193 264.074 436.793 262.464 428.223 256.714 417.483 258.764 408.573 262.534 398.863 266.644 390.463 273.534 380.223 276.434 375.403 277.794 370.383 278.034 365.643 276.244 361.613 274.734 358.223 271.834 355.053 269.024 351.593 265.964 348.193 262.744 344.223 260.334 340.463 258.064 336.263 256.784 331.883 256.454 322.123 255.734 312.323 260.084 306.453 267.914 305.723 268.884 306.293 270.424 307.263 270.994 308.403 271.664 309.603 271.164 310.333 270.184zM191.432 113.784C201.692 112.284 212.572 115.534 220.392 122.314 222.572 124.204 225.772 121.034 223.572 119.134 214.412 111.194 202.212 107.694 190.242 109.444 189.042 109.624 188.382 111.144 188.672 112.214 189.012 113.504 190.222 113.954 191.432 113.784zM229.573 65.8442C238.723 77.5842 245.683 91.0542 250.063 105.274 251.303 109.324 252.333 113.424 253.173 117.574 253.743 120.414 258.083 119.214 257.513 116.374 254.473 101.214 248.643 86.5842 240.413 73.4942 238.053 69.7442 235.483 66.1442 232.763 62.6542 232.013 61.6942 230.363 61.8742 229.583 62.6542 228.633 63.6142 228.823 64.8842 229.573 65.8442zM320.713 90.0548C307.153 95.6148 295.503 105.175 287.413 117.415 285.163 120.815 283.223 124.415 281.603 128.155 281.123 129.265 281.273 130.565 282.413 131.235 283.363 131.795 285.003 131.545 285.493 130.425 290.913 117.885 300.063 107.105 311.603 99.7748 314.873 97.6948 318.323 95.8748 321.913 94.3948 323.033 93.9348 323.833 92.9048 323.483 91.6248 323.193 90.5648 321.843 89.5948 320.713 90.0548z"></path>
</svg>
